<?xml version="1.0" encoding="utf-8"?>
<!-- Generator: Adobe Illustrator 25.2.3, SVG Export Plug-In . SVG Version: 6.00 Build 0)  -->
<svg version="1.1" id="Layer_1" xmlns="http://www.w3.org/2000/svg" xmlns:xlink="http://www.w3.org/1999/xlink" x="0px" y="0px"
	 viewBox="0 0 1366 400" style="enable-background:new 0 0 1366 400;" xml:space="preserve">
<style type="text/css">
	.st0{enable-background:new    ;}
</style>
<g class="st0">
	<path d="M13.6,281.9l10-5.2c2.4,7.6,7.2,12.2,16,12.2c10.6,0,17.8-5.8,22-21.8l38.6-143.8h12L74,265.9c-6.4,23.6-18.2,33-35,33
		C25.8,298.9,17.4,292.5,13.6,281.9z"/>
	<path d="M180.8,123.3h12l13,132h-12l-3-33.4h-60L110,255.3H97L180.8,123.3z M136,212.9h54.4l-6.6-75.8L136,212.9z"/>
	<path d="M261.2,123.3h12l-20,74.4l81-74.4h15l-62.2,57l31.6,75H306l-28-67.8l-28.8,25.2l-11.4,42.6h-12L261.2,123.3z"/>
	<path d="M348,222.1c0-3.4,0.4-8.6,2-14.4l22.6-84.4h12L362,207.9c-1.2,4.8-2,9.2-2,13.2c0,15.4,10.2,25.6,28.4,25.6
		c20.2,0,35.6-10.8,42.2-35l23.8-88.4h12l-23.8,88.6c-8.2,31-25.4,45.2-55,45.2C363.8,257.1,348,244.5,348,222.1z"/>
	<path d="M501.2,123.3H531c26.4,0,40.6,10.4,40.6,28.4c0,17.2-12.6,30.6-35,34.4v0.2c17,2.6,25.8,13.4,25.8,26.4
		c0,28.2-23,42.6-62.6,42.6h-34L501.2,123.3z M501.4,245.9c33.2,0,48.8-11.6,48.8-33.4c0-13.4-9-22.2-29-22.2h-26l-14.8,55.6H501.4z
		 M497.6,181.5h25c23.2,0,36.8-11.4,36.8-29c0-13-9-19.8-30-19.8h-18.8L497.6,181.5z"/>
	<path d="M655.8,123.3H684c25.8,0,42.4,12.6,42.4,31.8c0,29-22.2,44-60.8,44h-18.2l-15,56.2h-12L655.8,123.3z M665.2,132.7l-15.2,57
		h17.4c31.8,0,46.6-12.6,46.6-34c0-14.2-9.8-23-32-23H665.2z"/>
	<path d="M787.2,132.9h-41.6l2.6-9.6h95.2l-2.6,9.6h-41.6l-32.8,122.4h-12L787.2,132.9z"/>
	<path d="M888,123.3h12l13,132h-12l-3-33.4h-60l-20.8,33.4h-13L888,123.3z M843.2,212.9h54.4l-6.6-75.8L843.2,212.9z"/>
	<path d="M936.4,207.9c0-44.4,37-86.4,76.2-86.4c22,0,35.8,12.6,41.4,33.6l-10.6,5c-4.4-17.4-14.4-28.2-32.4-28.2
		c-33.2,0-62.2,38.6-62.2,76.4c0,23.8,12.4,38.4,34.6,38.4c18,0,35.4-11,44.8-27.4l9.6,6c-10.8,18.6-32.8,31.8-55.2,31.8
		C952.4,257.1,936.4,236.1,936.4,207.9z"/>
	<path d="M1089.8,123.3h11.4l38.6,113.8l30.6-113.8h11.2l-35.4,132h-11.4l-38.6-113.8l-30.6,113.8h-11.2L1089.8,123.3z"/>
	<path d="M1217,123.3h12l-35.4,132h-12L1217,123.3z"/>
	<path d="M1264.4,123.3h12l-20,74.4l81-74.4h15l-62.2,57l31.6,75h-12.6l-28-67.8l-28.8,25.2l-11.4,42.6h-12L1264.4,123.3z"/>
</g>
</svg>
